<?xml version="1.0" encoding="utf-8"?>
<!-- Generator: Adobe Illustrator 17.0.0, SVG Export Plug-In . SVG Version: 6.00 Build 0)  -->
<!DOCTYPE svg PUBLIC "-//W3C//DTD SVG 1.1//EN" "http://www.w3.org/Graphics/SVG/1.1/DTD/svg11.dtd">
<svg version="1.1" id="Layer_1" xmlns="http://www.w3.org/2000/svg" xmlns:xlink="http://www.w3.org/1999/xlink" x="0px" y="0px"
	 width="256px" height="384px" viewBox="0 0 256 384" enable-background="new 0 0 256 384" xml:space="preserve">
<g>
	<g>
		<path fill="#90CAF9" d="M16,119.2c-2.5,0-4.71-1.28-6-3.22c0.03-1.99,4-3.08,6-3.08c1.99,0,5.97,1.09,6,3.08
			C20.71,117.92,18.5,119.2,16,119.2 M16,105c1.66,0,3,1.34,3,3c0,1.66-1.34,3-3,3s-3-1.34-3-3C13,106.34,14.34,105,16,105 M16,102
			c-5.52,0-10,4.48-10,10c0,5.52,4.48,10,10,10s10-4.48,10-10C26,106.48,21.52,102,16,102"/>
		<path fill="#FFFFFF" d="M208,132c-6.624,0-12,5.376-12,12c0,6.624,5.376,12,12,12c6.624,0,12-5.376,12-12
			C220,137.376,214.624,132,208,132 M208,135.6c1.992,0,3.6,1.608,3.6,3.6c0,1.992-1.608,3.6-3.6,3.6c-1.992,0-3.6-1.608-3.6-3.6
			C204.4,137.208,206.008,135.6,208,135.6 M208,152.64c-3,0-5.652-1.536-7.2-3.864c0.036-2.388,4.8-3.696,7.2-3.696
			c2.388,0,7.164,1.308,7.2,3.696C213.652,151.104,211,152.64,208,152.64"/>
		<path fill="#1976D2" d="M240,4c-6.624,0-12,5.376-12,12s5.376,12,12,12c6.624,0,12-5.376,12-12S246.624,4,240,4 M240,7.6
			c1.992,0,3.6,1.608,3.6,3.6c0,1.992-1.608,3.6-3.6,3.6c-1.992,0-3.6-1.608-3.6-3.6C236.4,9.208,238.008,7.6,240,7.6 M240,24.64
			c-3,0-5.652-1.536-7.2-3.864c0.036-2.388,4.8-3.696,7.2-3.696c2.388,0,7.164,1.308,7.2,3.696C245.652,23.104,243,24.64,240,24.64"
			/>
		<path fill="#1976D2" d="M54,19.75v-5c0-3.07-1.64-5.64-4.5-6.32V7.75c0-0.83-0.67-1.5-1.5-1.5c-0.83,0-1.5,0.67-1.5,1.5v0.68
			c-2.87,0.68-4.5,3.24-4.5,6.32v5l-2,2v1h16v-1L54,19.75z M48,25.75c1.1,0,2-0.9,2-2h-4C46,24.85,46.89,25.75,48,25.75"/>
		<path fill="#FFFFFF" d="M54,147.75v-5c0-3.07-1.64-5.64-4.5-6.32v-0.68c0-0.83-0.67-1.5-1.5-1.5c-0.83,0-1.5,0.67-1.5,1.5v0.68
			c-2.87,0.68-4.5,3.24-4.5,6.32v5l-2,2v1h16v-1L54,147.75z M48,153.75c1.1,0,2-0.9,2-2h-4C46,152.85,46.89,153.75,48,153.75"/>
		<path fill="#1976D2" d="M13.755,18.255c-2.49,0-4.5-2.01-4.5-4.5c0-2.49,2.01-4.5,4.5-4.5s4.5,2.01,4.5,4.5
			C18.255,16.245,16.245,18.255,13.755,18.255 M19.755,18.255h-0.79l-0.28-0.27c0.98-1.14,1.57-2.62,1.57-4.23
			c0-3.59-2.91-6.5-6.5-6.5s-6.5,2.91-6.5,6.5c0,3.59,2.91,6.5,6.5,6.5c1.61,0,3.09-0.59,4.23-1.57l0.27,0.28v0.79l5,4.99l1.49-1.49
			L19.755,18.255z"/>
		<path fill="#FFFFFF" d="M13.755,146.255c-2.49,0-4.5-2.01-4.5-4.5c0-2.49,2.01-4.5,4.5-4.5s4.5,2.01,4.5,4.5
			C18.255,144.245,16.245,146.255,13.755,146.255 M19.755,146.255h-0.79l-0.28-0.27c0.98-1.14,1.57-2.62,1.57-4.23
			c0-3.59-2.91-6.5-6.5-6.5s-6.5,2.91-6.5,6.5c0,3.59,2.91,6.5,6.5,6.5c1.61,0,3.09-0.59,4.23-1.57l0.27,0.28v0.79l5,4.99l1.49-1.49
			L19.755,146.255z"/>
		<path fill="#1976D2" d="M150,22c-1.1,0-1.99,0.9-1.99,2c0,1.1,0.89,2,1.99,2c1.1,0,2-0.9,2-2C152,22.9,151.1,22,150,22 M134,6v2h2
			l3.6,7.59l-1.35,2.45C138.09,18.32,138,18.65,138,19c0,1.1,0.9,2,2,2h12v-2h-11.58c-0.14,0-0.25-0.11-0.25-0.25l0.03-0.12
			l0.9-1.63h7.45c0.75,0,1.41-0.41,1.75-1.03l3.58-6.49C153.96,9.34,154,9.17,154,9c0-0.55-0.45-1-1-1h-14.79l-0.94-2H134z M140,22
			c-1.1,0-1.99,0.9-1.99,2c0,1.1,0.89,2,1.99,2c1.1,0,2-0.9,2-2C142,22.9,141.1,22,140,22"/>
		<path fill="#FFFFFF" d="M150,150c-1.1,0-1.99,0.9-1.99,2c0,1.1,0.89,2,1.99,2c1.1,0,2-0.9,2-2C152,150.9,151.1,150,150,150
			 M134,134v2h2l3.6,7.59l-1.35,2.45c-0.16,0.28-0.25,0.61-0.25,0.96c0,1.1,0.9,2,2,2h12v-2h-11.58c-0.14,0-0.25-0.11-0.25-0.25
			l0.03-0.12l0.9-1.63h7.45c0.75,0,1.41-0.41,1.75-1.03l3.58-6.49c0.08-0.14,0.12-0.31,0.12-0.48c0-0.55-0.45-1-1-1h-14.79l-0.94-2
			H134z M140,150c-1.1,0-1.99,0.9-1.99,2c0,1.1,0.89,2,1.99,2c1.1,0,2-0.9,2-2C142,150.9,141.1,150,140,150"/>
		<path fill="#1976D2" d="M114.19,18.19L106,22l3.81-8.19L118,10L114.19,18.19z M112,6c-5.52,0-10,4.48-10,10c0,5.52,4.48,10,10,10
			c5.52,0,10-4.48,10-10C122,10.48,117.52,6,112,6 M112,14.9c-0.61,0-1.1,0.49-1.1,1.1c0,0.61,0.49,1.1,1.1,1.1
			c0.61,0,1.1-0.49,1.1-1.1C113.1,15.39,112.61,14.9,112,14.9"/>
		<path fill="#FFFFFF" d="M114.19,146.19L106,150l3.81-8.19L118,138L114.19,146.19z M112,134c-5.52,0-10,4.48-10,10s4.48,10,10,10
			c5.52,0,10-4.48,10-10S117.52,134,112,134 M112,142.9c-0.61,0-1.1,0.49-1.1,1.1s0.49,1.1,1.1,1.1c0.61,0,1.1-0.49,1.1-1.1
			S112.61,142.9,112,142.9"/>
		<path fill="#1976D2" d="M83.2,17c0-1.767-1.433-3.2-3.2-3.2c-1.767,0-3.2,1.433-3.2,3.2c0,1.767,1.433,3.2,3.2,3.2
			C81.767,20.2,83.2,18.767,83.2,17 M85,17c0,2.76-2.24,5-5,5c-2.76,0-5-2.24-5-5c0-2.76,2.24-5,5-5C82.76,12,85,14.24,85,17 M90,23
			V11c0-1.1-0.9-2-2-2h-3.17L83,7h-6l-1.83,2H72c-1.1,0-2,0.9-2,2v12c0,1.1,0.9,2,2,2h16C89.1,25,90,24.1,90,23"/>
		<path fill="#FFFFFF" d="M83.2,145c0-1.767-1.433-3.2-3.2-3.2c-1.767,0-3.2,1.433-3.2,3.2c0,1.767,1.433,3.2,3.2,3.2
			C81.767,148.2,83.2,146.767,83.2,145 M85,145c0,2.76-2.24,5-5,5c-2.76,0-5-2.24-5-5c0-2.76,2.24-5,5-5C82.76,140,85,142.24,85,145
			 M90,151v-12c0-1.1-0.9-2-2-2h-3.17L83,135h-6l-1.83,2H72c-1.1,0-2,0.9-2,2v12c0,1.1,0.9,2,2,2h16C89.1,153,90,152.1,90,151"/>
	</g>
	<polygon fill="#FFFFFF" points="248,143 235.83,143 241.42,137.41 240,136 232,144 240,152 241.41,150.59 235.83,145 248,145 	"/>
	<polygon fill="#FFFFFF" points="16,179.847 20.12,182.334 19.027,177.647 22.667,174.494 17.873,174.087 16,169.667 
		14.127,174.087 9.333,174.494 12.973,177.647 11.88,182.334 	"/>
	<g>
		<path fill="#FFFFFF" d="M28,338.4c-5,0-9.42-2.56-12-6.44c0.06-3.98,8-6.16,12-6.16c3.98,0,11.94,2.18,12,6.16
			C37.42,335.84,33,338.4,28,338.4 M28,310c3.32,0,6,2.68,6,6s-2.68,6-6,6s-6-2.68-6-6S24.68,310,28,310 M28,304
			c-11.04,0-20,8.96-20,20c0,11.04,8.96,20,20,20s20-8.96,20-20C48,312.96,39.04,304,28,304"/>
		<path fill="#BDBDBD" d="M51.2,209c0-1.767-1.433-3.2-3.2-3.2c-1.767,0-3.2,1.433-3.2,3.2c0,1.767,1.433,3.2,3.2,3.2
			C49.767,212.2,51.2,210.767,51.2,209 M53,209c0,2.76-2.24,5-5,5c-2.76,0-5-2.24-5-5c0-2.76,2.24-5,5-5C50.76,204,53,206.24,53,209
			 M58,215v-12c0-1.1-0.9-2-2-2h-3.17L51,199h-6l-1.83,2H40c-1.1,0-2,0.9-2,2v12c0,1.1,0.9,2,2,2h16C57.1,217,58,216.1,58,215"/>
		<path fill="#757575" d="M51.2,241c0-1.767-1.433-3.2-3.2-3.2c-1.767,0-3.2,1.433-3.2,3.2c0,1.767,1.433,3.2,3.2,3.2
			C49.767,244.2,51.2,242.767,51.2,241 M53,241c0,2.76-2.24,5-5,5c-2.76,0-5-2.24-5-5c0-2.76,2.24-5,5-5C50.76,236,53,238.24,53,241
			 M58,247v-12c0-1.1-0.9-2-2-2h-3.17L51,231h-6l-1.83,2H40c-1.1,0-2,0.9-2,2v12c0,1.1,0.9,2,2,2h16C57.1,249,58,248.1,58,247"/>
	</g>
	<polygon fill="#1976D2" points="165.51,25 186.5,16 165.51,7 165.5,14 180.5,16 165.5,18 	"/>
	<polygon fill="#BDBDBD" points="69.51,217 90.5,208 69.51,199 69.5,206 84.5,208 69.5,210 	"/>
	<g>
		<path fill="#757575" d="M16,232c-2.891,0-5.397,1.639-6.648,4.036C6.343,236.36,4,238.906,4,242c0,3.314,2.687,6,6,6h13
			c2.761,0,5-2.239,5-5c0-2.64-2.053-4.779-4.645-4.964C22.674,234.595,19.641,232,16,232 M11,241l5-5l5,5h-3v4h-4v-4H11z"/>
		<path fill="#BDBDBD" d="M16,200c-2.891,0-5.397,1.639-6.648,4.036C6.343,204.36,4,206.906,4,210c0,3.314,2.687,6,6,6h13
			c2.761,0,5-2.239,5-5c0-2.64-2.053-4.779-4.645-4.964C22.674,202.595,19.641,200,16,200 M11,209l5-5l5,5h-3v4h-4v-4H11z"/>
		<path fill="#757575" d="M99.46,342l-7.8,13.52c1.4,0.3,2.84,0.48,4.34,0.48c4.8,0,9.2-1.7,12.64-4.5l-7.32-12.7L99.46,342z
			 M76.92,342c1.84,5.84,6.3,10.52,12,12.68L96.24,342H76.92z M89.08,336l-7.8-13.5C78.02,326.06,76,330.78,76,336
			c0,1.38,0.14,2.7,0.4,4h14.98L89.08,336z M115.6,332h-14.98l0.58,1l9.52,16.5c3.28-3.56,5.28-8.28,5.28-13.5
			C116,334.62,115.86,333.3,115.6,332 M115.08,330c-1.84-5.84-6.3-10.52-12-12.68L95.76,330H115.08z M90.8,333l9.54-16.52
			c-1.4-0.3-2.84-0.48-4.34-0.48c-4.8,0-9.2,1.7-12.64,4.5l7.32,12.7L90.8,333z"/>
		<path fill="none" stroke="#1976D2" stroke-width="4" d="M96,366c16.542,0,30-13.457,30-30s-13.458-30-30-30s-30,13.457-30,30
			S79.458,366,96,366z"/>
		<path fill="#1976D2" d="M208,24c4.418,0,8-3.582,8-8c0-4.418-3.582-8-8-8c-4.418,0-8,3.582-8,8C200,20.418,203.582,24,208,24"/>
	</g>
	<polygon fill="#FFFFFF" points="211.192,12 208,15.192 204.808,12 204,12.808 207.192,16 204,19.192 204.808,20 208,16.808 
		211.192,20 212,19.192 208.808,16 212,12.808 	"/>
	<polygon fill="#FFFFFF" points="51.705,180.59 47.125,176 51.705,171.41 50.295,170 44.295,176 50.295,182 	"/>
	<polygon fill="#FFFFFF" points="76.295,171.41 80.875,176 76.295,180.59 77.705,182 83.705,176 77.705,170 	"/>
	<g>
		<path fill="#FFFFFF" d="M112.067,180.25L112,180.316l-0.067-0.066c-3.173-2.874-5.266-4.774-5.266-6.7
			c0-1.334,1-2.334,2.333-2.334c1.027,0,2.027,0.66,2.38,1.574h1.247c0.346-0.914,1.346-1.574,2.373-1.574
			c1.333,0,2.333,1,2.333,2.334C117.333,175.476,115.24,177.376,112.067,180.25 M115,169.883c-1.16,0-2.273,0.54-3,1.393
			c-0.727-0.853-1.84-1.393-3-1.393c-2.053,0-3.667,1.613-3.667,3.667c0,2.52,2.267,4.573,5.7,7.693l0.967,0.873l0.967-0.88
			c3.433-3.113,5.7-5.166,5.7-7.686C118.667,171.496,117.053,169.883,115,169.883"/>
	</g>
	<path fill="#FFFFFF" d="M171.334,149.666h9.333v-1.333h-9.333V149.666z M180.667,142.333H178v-4h-4v4h-2.666L176,147
		L180.667,142.333z"/>
	<g>
		<path fill="#FFFFFF" d="M144,174c-1.107,0-2,0.893-2,2c0,1.107,0.893,2,2,2c1.107,0,2-0.893,2-2C146,174.893,145.107,174,144,174
			 M144,179.333c-1.84,0-3.333-1.493-3.333-3.333c0-1.84,1.493-3.333,3.333-3.333c1.84,0,3.333,1.493,3.333,3.333
			C147.333,177.84,145.84,179.333,144,179.333 M144,171c-3.333,0-6.18,2.073-7.333,5c1.153,2.927,4,5,7.333,5
			c3.333,0,6.18-2.073,7.333-5C150.18,173.073,147.333,171,144,171"/>
	</g>
	<path fill="#1976D2" d="M11.334,53.666h9.333v-1.333h-9.333V53.666z M20.667,46.333H18v-4h-4v4h-2.666L16,51L20.667,46.333z"/>
	<g>
		<path fill="#1976D2" d="M48.667,46h-1.333v-1.333h1.333V46z M48.667,51.333h-1.333v-4h1.333V51.333z M48,41.333
			c-3.68,0-6.667,2.987-6.667,6.667S44.32,54.666,48,54.666c3.68,0,6.667-2.986,6.667-6.666S51.68,41.333,48,41.333"/>
		<path fill="#1976D2" d="M81,45h-2v-2h2V45z M81,53h-2v-6h2V53z M80,38c-5.52,0-10,4.48-10,10c0,5.52,4.48,10,10,10
			c5.52,0,10-4.48,10-10C90,42.48,85.52,38,80,38"/>
		<path fill="#1976D2" d="M118,39h-12v4h12V39z M119,48c-0.55,0-1-0.45-1-1c0-0.55,0.45-1,1-1c0.55,0,1,0.45,1,1
			C120,47.55,119.55,48,119,48 M116,55h-8v-5h8V55z M119,44h-14c-1.66,0-3,1.34-3,3v6h4v4h12v-4h4v-6C122,45.34,120.66,44,119,44"/>
		<path fill="#1976D2" d="M152.709,43.041c0.39-0.39,0.39-1.02,0-1.41l-2.34-2.34c-0.39-0.39-1.02-0.39-1.41,0l-1.83,1.83l3.75,3.75
			L152.709,43.041z M134.999,53.251v3.75h3.75l11.06-11.06l-3.75-3.75L134.999,53.251z"/>
		<path fill="#1976D2" d="M181.13,41.84c-0.36-0.51-0.96-0.84-1.63-0.84l-11,0.01c-1.1,0-2,0.89-2,1.99v10c0,1.1,0.9,1.99,2,1.99
			l11,0.01c0.67,0,1.27-0.33,1.63-0.84L185.5,48L181.13,41.84z"/>
		<path fill="#1976D2" d="M218.728,54.95l-9.1-9.1c0.9-2.3,0.4-5-1.5-6.9c-2-2-5-2.4-7.4-1.3l4.3,4.3l-3,3l-4.4-4.3
			c-1.2,2.4-0.7,5.4,1.3,7.4c1.9,1.9,4.6,2.4,6.9,1.5l9.1,9.1c0.4,0.4,1,0.4,1.4,0l2.3-2.3
			C219.128,55.95,219.128,55.25,218.728,54.95"/>
		<path fill="#1976D2" d="M240,56c-4.41,0-8-3.59-8-8s3.59-8,8-8c4.41,0,8,3.59,8,8S244.41,56,240,56 M240,38c-5.52,0-10,4.48-10,10
			s4.48,10,10,10c5.52,0,10-4.48,10-10S245.52,38,240,38 M238.08,46.86c0.05-0.33,0.16-0.62,0.3-0.87s0.34-0.46,0.59-0.62
			c0.24-0.15,0.54-0.22,0.91-0.23c0.23,0.01,0.44,0.05,0.63,0.13c0.2,0.09,0.38,0.21,0.52,0.36s0.25,0.33,0.34,0.53
			c0.09,0.2,0.13,0.42,0.14,0.64h1.79c-0.02-0.47-0.11-0.9-0.28-1.29c-0.17-0.39-0.4-0.73-0.7-1.01s-0.66-0.5-1.08-0.66
			s-0.88-0.23-1.39-0.23c-0.65,0-1.22,0.11-1.7,0.34c-0.48,0.23-0.88,0.53-1.2,0.92c-0.32,0.39-0.56,0.84-0.71,1.36
			c-0.15,0.52-0.24,1.06-0.24,1.64v0.27c0,0.58,0.08,1.12,0.23,1.64s0.39,0.97,0.71,1.35c0.32,0.38,0.72,0.69,1.2,0.91
			c0.48,0.22,1.05,0.34,1.7,0.34c0.47,0,0.91-0.08,1.32-0.23c0.41-0.15,0.77-0.36,1.08-0.63c0.31-0.27,0.56-0.58,0.74-0.94
			c0.18-0.36,0.29-0.74,0.3-1.15h-1.79c-0.01,0.21-0.06,0.4-0.15,0.58c-0.09,0.18-0.21,0.33-0.36,0.46s-0.32,0.23-0.52,0.3
			c-0.19,0.07-0.39,0.09-0.6,0.1c-0.36-0.01-0.66-0.08-0.89-0.23c-0.25-0.16-0.45-0.37-0.59-0.62s-0.25-0.55-0.3-0.88
			c-0.05-0.33-0.08-0.67-0.08-1v-0.27C238,47.52,238.03,47.19,238.08,46.86"/>
		<path fill="#757575" d="M84.258,282.978c0-1.632,0.682-2.87,2.278-2.87s2.278,1.238,2.278,2.762c0,1.74-0.682,2.978-2.278,2.978
			S84.258,284.61,84.258,282.978 M81.46,282.978c0,3.211,2.098,5.022,5.076,5.022c2.977,0,5.076-1.811,5.076-5.022
			c0-3.21-2.099-5.022-5.076-5.022C83.558,277.956,81.46,279.768,81.46,282.978 M69.588,278.207H66.79v9.542h2.798v-5.937
			c0-0.861,0.358-1.596,1.488-1.596c1.077,0,1.364,0.628,1.364,1.56v5.973h2.798v-5.865c0-0.969,0.484-1.668,1.417-1.668
			c1.058,0,1.435,0.61,1.435,1.955v5.578h2.798v-7.282c0-2.188-2.009-2.511-2.942-2.511c-1.112,0-2.152,0.341-3.067,1.273
			c-0.628-0.843-1.435-1.273-2.529-1.273c-0.861,0-2.045,0.251-2.762,1.094V278.207z M54.595,278.207h-2.799v9.542h2.799v-5.937
			c0-0.861,0.358-1.596,1.488-1.596c1.077,0,1.364,0.628,1.364,1.56v5.973h2.798v-5.865c0-0.969,0.484-1.668,1.417-1.668
			c1.058,0,1.435,0.61,1.435,1.955v5.578h2.798v-7.282c0-2.188-2.009-2.511-2.942-2.511c-1.112,0-2.152,0.341-3.067,1.273
			c-0.628-0.843-1.435-1.273-2.529-1.273c-0.861,0-2.045,0.251-2.762,1.094V278.207z M43.869,282.978c0-1.632,0.682-2.87,2.278-2.87
			c1.596,0,2.278,1.238,2.278,2.762c0,1.74-0.682,2.978-2.278,2.978C44.551,285.848,43.869,284.61,43.869,282.978 M41.071,282.978
			c0,3.211,2.098,5.022,5.076,5.022c2.977,0,5.076-1.811,5.076-5.022c0-3.21-2.099-5.022-5.076-5.022
			C43.169,277.956,41.071,279.768,41.071,282.978 M31.997,282.978c0,3.211,1.973,5.022,4.825,5.022c1.829,0,3.39-1.004,4.251-2.529
			l-2.009-1.022c-0.449,1.076-1.13,1.399-1.991,1.399c-1.489,0-2.171-1.238-2.171-2.87c0-1.632,0.574-2.87,2.171-2.87
			c0.43,0,1.291,0.233,1.793,1.31l2.153-1.13c-0.915-1.669-2.476-2.332-4.287-2.332C34.095,277.956,31.997,279.821,31.997,282.978
			 M16.158,277.326c0-1.059,0.373-1.863,1.408-1.863c0.28,0,0.839,0.152,1.165,0.85l1.396-0.733
			c-0.593-1.083-1.606-1.513-2.782-1.513c-1.711,0-3.073,1.21-3.073,3.259c0,2.083,1.281,3.259,3.132,3.259
			c1.187,0,2.2-0.652,2.758-1.641l-1.303-0.664c-0.292,0.699-0.734,0.908-1.293,0.908C16.6,279.188,16.158,278.385,16.158,277.326
			 M22.22,277.326c0-1.059,0.373-1.863,1.409-1.863c0.279,0,0.838,0.152,1.164,0.85l1.396-0.733
			c-0.593-1.083-1.606-1.513-2.782-1.513c-1.711,0-3.073,1.21-3.073,3.259c0,2.083,1.281,3.259,3.132,3.259
			c1.187,0,2.2-0.652,2.758-1.641l-1.303-0.664c-0.291,0.699-0.734,0.908-1.292,0.908C22.663,279.188,22.22,278.385,22.22,277.326
			 M28.842,277.326c0,2.361-0.835,4.434-2.447,6.017c-1.699,1.67-3.887,2.562-6.132,2.562c-2.275,0-4.405-0.892-6.046-2.533
			c-1.641-1.641-2.563-3.8-2.563-6.046c0-2.274,0.922-4.434,2.563-6.104c1.612-1.641,3.685-2.504,6.046-2.504
			c2.36,0,4.462,0.892,6.103,2.533C27.978,272.864,28.842,274.994,28.842,277.326 M27.748,284.696
			c1.958-1.929,2.994-4.491,2.994-7.37c0-2.85-1.036-5.441-3.023-7.428c-2.015-2.015-4.606-3.081-7.485-3.081
			c-2.879,0-5.413,1.066-7.37,3.052c-2.016,2.044-3.11,4.693-3.11,7.457c0,2.793,1.066,5.383,3.081,7.399
			c2.015,2.015,4.635,3.109,7.399,3.109S25.675,286.74,27.748,284.696 M34.902,272c0-1.632,0.574-2.87,2.171-2.87
			c0.43,0,1.291,0.233,1.793,1.31l2.153-1.13c-0.915-1.669-2.476-2.332-4.287-2.332c-2.637,0-4.735,1.865-4.735,5.022
			c0,3.211,1.973,5.022,4.825,5.022c1.829,0,3.39-1.004,4.251-2.529l-2.009-1.022c-0.449,1.076-1.13,1.399-1.991,1.399
			C35.584,274.87,34.902,273.632,34.902,272 M46.831,269.704l0.305-0.036l-0.018-2.475c-0.986,0.072-2.009,0.431-2.618,1.005v-0.969
			h-2.799v9.542H44.5v-5.524C44.5,270.188,45.163,269.902,46.831,269.704 M50.038,270.852c0.126-1.255,1.094-1.829,1.902-1.829
			c0.807,0,1.811,0.43,1.901,1.829H50.038z M50.074,272.574h6.565c-0.018-2.942-1.202-5.596-4.681-5.596
			c-2.906,0-4.682,1.937-4.682,5.309c0,2.691,1.722,4.735,4.682,4.735c2.134,0,3.659-0.843,4.627-2.636l-2.099-1.095
			c-0.807,1.148-1.291,1.687-2.331,1.687C51.258,274.978,50.092,274.404,50.074,272.574 M63.058,272.789
			c0,1.453-0.826,2.189-1.92,2.189c-0.681,0-1.309-0.323-1.309-1.077c0-0.771,0.646-1.04,1.345-1.237l1.884-0.538V272.789z
			 M63.416,276.771h2.583c-0.233-0.592-0.251-1.327-0.251-1.991v-5.04c-0.018-2.152-1.65-2.762-4.251-2.762
			c-1.291,0-3.838,0.251-3.928,2.995h2.691c0.143-0.95,0.573-1.273,1.47-1.273c0.754,0,1.328,0.305,1.328,1.022v0.789l-1.023,0.144
			c-3.049,0.43-4.897,1.237-4.897,3.533c0,1.83,1.364,2.834,3.193,2.834c1.005,0,2.404-0.484,2.87-1.237h0.036
			C63.255,276.108,63.309,276.448,63.416,276.771 M70.588,277.022c0.61,0,1.435-0.071,1.794-0.107v-2.206
			c-0.144,0.017-0.538,0.053-0.843,0.053c-0.503,0-0.879-0.197-0.879-0.95v-4.682h1.668v-1.722H70.66v-2.762h-2.799v2.762h-1.362
			v1.722h1.362v5.023C67.861,275.534,68.202,277.022,70.588,277.022 M73.382,266.153h2.798v-2.152h-2.798V266.153z M73.382,276.771
			h2.798v-9.542h-2.798V276.771z M82.761,276.771l3.265-9.542h-2.977l-1.651,6.744h-0.035l-1.651-6.744h-2.995l3.229,9.542H82.761z
			 M88.462,270.852c0.125-1.255,1.093-1.829,1.901-1.829c0.807,0,1.812,0.43,1.901,1.829H88.462z M88.497,272.574h6.565
			c-0.018-2.942-1.202-5.596-4.681-5.596c-2.906,0-4.681,1.937-4.681,5.309c0,2.691,1.721,4.735,4.681,4.735
			c2.134,0,3.659-0.843,4.628-2.636l-2.099-1.095c-0.807,1.148-1.292,1.687-2.332,1.687
			C89.681,274.978,88.515,274.404,88.497,272.574 M98.015,287.749h2.798V280.7c0-1.435-0.628-2.744-2.888-2.744
			c-0.861,0-2.045,0.251-2.762,1.094v-0.843h-2.798v9.542h2.798v-5.937c0-0.861,0.358-1.596,1.489-1.596
			c1.076,0,1.363,0.628,1.363,1.56V287.749z M108.434,281.023l1.722-1.686c-1.291-0.861-2.744-1.381-4.215-1.381
			c-1.937,0-4.036,0.933-4.036,3.336c0,3.39,5.65,2.206,5.65,3.695c0,0.861-1.058,0.969-1.525,0.969
			c-1.273,0-2.152-0.52-3.013-1.346l-1.74,1.507c1.4,1.291,2.583,1.883,4.664,1.883c2.08,0,4.305-0.897,4.305-3.408
			c0-3.569-5.65-2.224-5.65-3.856c0-0.484,0.502-0.735,1.201-0.735C106.677,280.001,107.878,280.359,108.434,281.023"/>
		<path fill="#90CAF9" d="M48,120.64c-3,0-5.652-1.536-7.2-3.864c0.036-2.388,4.8-3.696,7.2-3.696c2.388,0,7.164,1.308,7.2,3.696
			C53.652,119.104,51,120.64,48,120.64 M48,103.6c1.992,0,3.6,1.608,3.6,3.6s-1.608,3.6-3.6,3.6c-1.992,0-3.6-1.608-3.6-3.6
			S46.008,103.6,48,103.6 M48,100c-6.624,0-12,5.376-12,12c0,6.624,5.376,12,12,12s12-5.376,12-12C60,105.376,54.624,100,48,100"/>
	</g>
	<polygon fill="#BDBDBD" points="119,202.41 117.59,201 112,206.59 106.41,201 105,202.41 110.59,208 105,213.59 106.41,215 
		112,209.41 117.59,215 119,213.59 113.41,208 	"/>
	<polygon fill="#BDBDBD" points="151,209 145,209 145,215 143,215 143,209 137,209 137,207 143,207 143,201 145,201 145,207 
		151,207 	"/>
	<rect x="169" y="207" fill="#BDBDBD" width="14" height="2"/>
	<g>
		<path fill="#FFFFFF" d="M183,168h-3.5l-1-1h-5l-1,1H169v2h14V168z M170,183c0,1.1,0.9,2,2,2h8c1.1,0,2-0.9,2-2v-12h-12V183z"/>
		<path fill="#FFFFFF" d="M210.19,178.19L202,182l3.81-8.19L214,170L210.19,178.19z M208,166c-5.52,0-10,4.48-10,10s4.48,10,10,10
			c5.52,0,10-4.48,10-10S213.52,166,208,166 M208,174.9c-0.61,0-1.1,0.49-1.1,1.1s0.49,1.1,1.1,1.1c0.61,0,1.1-0.49,1.1-1.1
			S208.61,174.9,208,174.9"/>
		<path fill="#1976D2" d="M22,86.5c-0.83,0-1.5-0.67-1.5-1.5c0-0.83,0.67-1.5,1.5-1.5s1.5,0.67,1.5,1.5
			C23.5,85.83,22.83,86.5,22,86.5 M23.5,77.5l1.96,2.5H21v-2.5H23.5z M10,86.5c-0.83,0-1.5-0.67-1.5-1.5c0-0.83,0.67-1.5,1.5-1.5
			s1.5,0.67,1.5,1.5C11.5,85.83,10.83,86.5,10,86.5 M24,76h-3v-4H7c-1.1,0-2,0.9-2,2v11h2c0,1.66,1.34,3,3,3s3-1.34,3-3h6
			c0,1.66,1.34,3,3,3c1.66,0,3-1.34,3-3h2v-5L24,76z"/>
		<path fill="#1976D2" d="M56,76H40v-2h16V76z M56,86H40v-6h16V86z M56,72H40c-1.11,0-1.99,0.89-1.99,2L38,86c0,1.11,0.89,2,2,2h16
			c1.11,0,2-0.89,2-2V74C58,72.89,57.11,72,56,72"/>
		<path fill="#757575" d="M80,248c-4.42,0-8-3.58-8-8c0-4.42,3.58-8,8-8c4.42,0,8,3.58,8,8C88,244.42,84.42,248,80,248 M80,230
			c-5.52,0-10,4.48-10,10c0,5.52,4.48,10,10,10c5.52,0,10-4.48,10-10C90,234.48,85.52,230,80,230 M80,235c-2.76,0-5,2.24-5,5
			c0,2.76,2.24,5,5,5c2.76,0,5-2.24,5-5C85,237.24,82.76,235,80,235"/>
		<path fill="#757575" d="M112,248c-4.42,0-8-3.58-8-8c0-4.42,3.58-8,8-8c4.42,0,8,3.58,8,8C120,244.42,116.42,248,112,248 M112,230
			c-5.52,0-10,4.48-10,10c0,5.52,4.48,10,10,10c5.52,0,10-4.48,10-10C122,234.48,117.52,230,112,230"/>
		<path fill="#757575" d="M144,248c-4.41,0-8-3.59-8-8c0-4.41,3.59-8,8-8c4.41,0,8,3.59,8,8C152,244.41,148.41,248,144,248 M144,230
			c-5.52,0-10,4.48-10,10c0,5.52,4.48,10,10,10c5.52,0,10-4.48,10-10C154,234.48,149.52,230,144,230 M145,235h-2v4h-4v2h4v4h2v-4h4
			v-2h-4V235z"/>
		<path fill="#FFFFFF" d="M176,359.04c-8,0-15.072-4.096-19.2-10.304c0.096-6.368,12.8-9.856,19.2-9.856
			c6.368,0,19.104,3.488,19.2,9.856C191.072,354.944,184,359.04,176,359.04 M176,313.6c5.312,0,9.6,4.288,9.6,9.6
			c0,5.312-4.288,9.6-9.6,9.6c-5.312,0-9.6-4.288-9.6-9.6C166.4,317.888,170.688,313.6,176,313.6 M176,304
			c-17.664,0-32,14.336-32,32s14.336,32,32,32s32-14.336,32-32S193.664,304,176,304"/>
		<path fill="#1976D2" d="M80,87.2c-2.5,0-4.71-1.28-6-3.22c0.03-1.99,4-3.08,6-3.08c1.99,0,5.97,1.09,6,3.08
			C84.71,85.92,82.5,87.2,80,87.2 M80,73c1.66,0,3,1.34,3,3c0,1.66-1.34,3-3,3c-1.66,0-3-1.34-3-3C77,74.34,78.34,73,80,73 M80,70
			c-5.52,0-10,4.48-10,10c0,5.52,4.48,10,10,10c5.52,0,10-4.48,10-10C90,74.48,85.52,70,80,70"/>
		<path fill="#757575" d="M184.709,235.041c0.39-0.39,0.39-1.02,0-1.41l-2.34-2.34c-0.39-0.39-1.02-0.39-1.41,0l-1.83,1.83
			l3.75,3.75L184.709,235.041z M166.999,245.251v3.75h3.75l11.06-11.06l-3.75-3.75L166.999,245.251z"/>
		<path fill="#757575" d="M215,232h-3.5l-1-1h-5l-1,1H201v2h14V232z M202,247c0,1.1,0.9,2,2,2h8c1.1,0,2-0.9,2-2v-12h-12V247z"/>
		<path fill="#1976D2" d="M117.645,74.35c-1.45-1.45-3.44-2.35-5.65-2.35c-4.42,0-7.99,3.58-7.99,8c0,4.42,3.57,8,7.99,8
			c3.73,0,6.84-2.55,7.73-6h-2.08c-0.82,2.33-3.04,4-5.65,4c-3.31,0-6-2.69-6-6s2.69-6,6-6c1.66,0,3.14,0.69,4.22,1.78l-3.22,3.22h7
			v-7L117.645,74.35z"/>
		<path fill="#1976D2" d="M144,79.5c-1.38,0-2.5-1.12-2.5-2.5c0-1.38,1.12-2.5,2.5-2.5c1.38,0,2.5,1.12,2.5,2.5
			C146.5,78.38,145.38,79.5,144,79.5 M144,70c-3.87,0-7,3.13-7,7c0,5.25,7,13,7,13s7-7.75,7-13C151,73.13,147.87,70,144,70"/>
	</g>
	<polygon fill="#757575" points="240,243.847 244.12,246.334 243.027,241.647 246.667,238.494 241.873,238.087 240,233.667 
		238.127,238.087 233.333,238.494 236.973,241.647 235.88,246.334 	"/>
	<polygon fill="#FFFFFF" points="247,177 241,177 241,183 239,183 239,177 233,177 233,175 239,175 239,169 241,169 241,175 
		247,175 	"/>
</g>
</svg>
